<?xml version="1.0" encoding="UTF-8" standalone="no"?>
<svg xmlns="http://www.w3.org/2000/svg" viewBox="0 0 48 48">
  <path fill="#FF9900" d="M24.707,6.67c-4.157,0.017-9.5,1.533-12.647,4.573c-0.648,0.63-0.528,1.563,0.236,1.436
    c4.871-0.812,9.852-1.017,14.708-0.597c4.039,0.349,8.069,1.252,11.904,2.677c0.729,0.271,1.317-0.489,0.766-0.998
    C35.768,8.876,29.825,6.653,24.707,6.67z"/>
  <path fill="#FF9900" d="M40.099,15.466c-0.352-0.473-2.237-0.204-3.093-0.103c-0.259,0.031-0.299-0.194-0.066-0.357
    c1.514-1.063,3.99-0.757,4.283-0.399c0.292,0.357-0.077,2.832-1.487,4.015c-0.217,0.181-0.424,0.085-0.327-0.154
    C39.745,17.732,40.45,15.939,40.099,15.466z"/>
  <path fill="#232F3E" d="M36.336,21.377c-1.362,1.004-3.333,1.531-5.023,1.531c-2.379,0-4.523-0.879-6.144-2.341
    c-0.127-0.116-0.013-0.275,0.139-0.184c1.742,1.013,3.895,1.623,6.119,1.623c1.687,0,3.542-0.349,5.248-1.072
    C36.884,20.826,36.66,21.146,36.336,21.377z"/>
</svg> 